<svg width="24" height="24" viewBox="0 0 24 24" fill="none" xmlns="http://www.w3.org/2000/svg">
<path fill-rule="evenodd" clip-rule="evenodd" d="M7.92823 6.33083C7.48712 5.88972 6.77194 5.88972 6.33084 6.33083C5.88973 6.77194 5.88973 7.48711 6.33084 7.92822L10.4026 12L6.33083 16.0718C5.88972 16.5129 5.88972 17.2281 6.33083 17.6692C6.77194 18.1103 7.48711 18.1103 7.92822 17.6692L12 13.5974L16.0718 17.6692C16.5129 18.1103 17.2281 18.1103 17.6692 17.6692C18.1103 17.2281 18.1103 16.5129 17.6692 16.0718L13.5974 12L17.6692 7.92822C18.1103 7.48711 18.1103 6.77194 17.6692 6.33083C17.2281 5.88973 16.5129 5.88973 16.0718 6.33083L12 10.4026L7.92823 6.33083Z" fill="#9FA6B3"/>
</svg>
